<svg xmlns="http://www.w3.org/2000/svg" xmlns:xlink="http://www.w3.org/1999/xlink" viewBox="0 0 64 64"><defs><linearGradient id="b" x1="24.52" x2="24.52" y1="8.75" y2="42.29" gradientUnits="userSpaceOnUse"><stop offset="0" stop-color="#cf1d37"/><stop offset="1" stop-color="#cf0018"/></linearGradient><linearGradient id="c" x1="38.67" x2="38.67" y1="22" y2="58.5" gradientUnits="userSpaceOnUse"><stop offset="0" stop-color="#ff4d6c"/><stop offset="1" stop-color="#ff0825"/></linearGradient><linearGradient id="a" x1="49.48" x2="57" y1="30.45" y2="30.45" gradientUnits="userSpaceOnUse"><stop offset="0" stop-color="#000406"/><stop offset="1" stop-color="#001521"/></linearGradient><linearGradient id="d" x1="3.03" x2="61" y1="33.62" y2="33.62" xlink:href="#a"/><linearGradient id="e" x1="7.07" x2="14.18" y1="16.41" y2="16.41" xlink:href="#a"/></defs><g data-name="Layer 2"><path fill="url(#b)" d="M42.51 11.29c-5.88-4.88-12.81-2.15-18 3.33-5.18-5.48-12.11-8.22-18-3.33-7 5.78-3.69 23.76 11.8 30.65a27.13 27.13 0 004.53.35c11 0 18.54-5.75 22.46-17.13v-.08c1.54-5.81.46-11.08-2.79-13.79z"/><path fill="url(#c)" d="M57.38 24.64a10.49 10.49 0 00-8-2.59c-5 .5-9.1 4.33-10.76 6.09-1.66-1.76-5.79-5.59-10.76-6.09A10.53 10.53 0 0020 24.64c-3.32 2.75-4.46 8.15-3 14.09 1.93 7.78 8.59 17.05 21.5 19.75a.94.94 0 00.41 0c12.9-2.7 19.56-12 21.49-19.75 1.44-5.94.3-11.34-3.02-14.09z"/></g><g data-name="Layer 3"><path fill="url(#a)" d="M50.48 28a4.73 4.73 0 013.07 1.26c.93.74 1.45 2.49 1.45 4.62a1 1 0 001 1 1 1 0 001-1c0-2.8-.74-5-2.17-6.18a6.65 6.65 0 00-4.35-1.7 1 1 0 100 2z"/><path fill="url(#d)" d="M17.94 41.76c2.76 7 9.26 14.36 20.53 16.72a.94.94 0 00.41 0c12.9-2.7 19.56-12 21.49-19.75 1.47-5.94.33-11.34-3-14.09A10.64 10.64 0 0045.77 23c.78-5-.4-9.36-3.26-11.73a10.16 10.16 0 00-7.67-2.5c-4.75.48-8.71 4.12-10.33 5.83-1.61-1.71-5.57-5.35-10.32-5.83a10.14 10.14 0 00-7.67 2.5c-2.74 2.27-4 6.52-3.31 11.37a25.34 25.34 0 0014.73 19.12zM49.63 24a8.54 8.54 0 016.47 2.14c2.72 2.25 3.62 6.88 2.33 12.07-1.77 7.15-7.89 15.66-19.76 18.23-11.87-2.57-18-11.08-19.76-18.23-1.28-5.19-.39-9.82 2.33-12.07A8.6 8.6 0 0127.71 24c5.5.54 10.14 6.18 10.18 6.24a1 1 0 001.56 0c.04-.02 4.66-5.65 10.18-6.24zM7.79 12.83A8.18 8.18 0 0114 10.78c5.27.52 9.71 5.92 9.76 6a1 1 0 001.55 0c0-.06 4.48-5.46 9.76-6a8.16 8.16 0 016.18 2.05c2.54 2.1 3.41 6.53 2.26 11.35a24.1 24.1 0 00-4.82 4C33.3 22.43 26.08 19.56 20 24.64c-4 3.26-4.26 9.36-2.93 14.43A23.16 23.16 0 015.19 22.38c-.58-4.15.4-7.73 2.6-9.55z"/><path fill="url(#e)" d="M8 20.08a1 1 0 001.08-.91 4.83 4.83 0 011.29-3.27 4.32 4.32 0 012.83-1.16 1 1 0 000-2 6.26 6.26 0 00-4.11 1.63 6.66 6.66 0 00-2 4.63A1 1 0 008 20.08z"/></g></svg>